<?xml version="1.0" encoding="utf-8"?>
<!-- Generator: Adobe Illustrator 21.1.0, SVG Export Plug-In . SVG Version: 6.00 Build 0)  -->
<svg version="1.1" id="Layer_1" xmlns="http://www.w3.org/2000/svg" xmlns:xlink="http://www.w3.org/1999/xlink" x="0px" y="0px"
	 viewBox="0 0 100 100" style="enable-background:new 0 0 100 100;" xml:space="preserve">
<path d="M81.1,37.3l-4.6-6l1-7.4c0.1-0.9-0.4-1.7-1.2-2L69.4,19l-2.9-6.9c-0.3-0.8-1.1-1.3-2-1.2l-7.4,1l-6-4.6
	c-0.7-0.5-1.6-0.5-2.3,0l-6,4.6l-7.4-1c-0.9-0.1-1.7,0.4-2,1.2L30.6,19l-6.9,2.9c-0.8,0.3-1.3,1.1-1.2,2l1,7.4l-4.6,6
	c-0.5,0.7-0.5,1.6,0,2.3l4.6,6l-1,7.4c-0.1,0.9,0.4,1.7,1.2,2l6.9,2.9l2.9,6.9c0.3,0.6,0.8,1,1.4,1.1v25.2c0,0.7,0.4,1.3,1,1.7
	c0.6,0.3,1.3,0.3,1.9-0.1L50,85l12.2,7.7c0.3,0.2,0.7,0.3,1,0.3c0.3,0,0.6-0.1,0.9-0.2c0.6-0.3,1-1,1-1.7V65.9
	c0.6-0.1,1.2-0.5,1.4-1.1l2.9-6.9l6.9-2.9c0.8-0.3,1.3-1.1,1.2-2l-1-7.4l4.6-6C81.6,38.9,81.6,38,81.1,37.3L81.1,37.3z M51,81.2
	c-0.6-0.4-1.4-0.4-2,0l-10.3,6.5V65.5l4.2-0.6l6,4.6c0.3,0.3,0.7,0.4,1.2,0.4c0.4,0,0.8-0.1,1.2-0.4l6-4.6l4.2,0.6v22.2L51,81.2z
	 M73,43.9c-0.3,0.4-0.4,0.9-0.4,1.4l0.9,6.8l-6.3,2.6c-0.5,0.2-0.8,0.6-1,1L63.6,62l-6.8-0.9c-0.5-0.1-1,0.1-1.4,0.4L50,65.6
	l-5.4-4.2c-0.3-0.3-0.7-0.4-1.2-0.4c-0.1,0-0.2,0-0.2,0L36.4,62l-2.6-6.3c-0.2-0.5-0.6-0.8-1-1L26.4,52l0.9-6.8
	c0.1-0.5-0.1-1-0.4-1.4l-4.2-5.4L27,33c0.3-0.4,0.4-0.9,0.4-1.4l-0.9-6.8l6.3-2.6c0.5-0.2,0.8-0.6,1-1l2.6-6.3l6.8,0.9
	c0.5,0.1,1-0.1,1.4-0.4l5.4-4.2l5.4,4.2c0.4,0.3,0.9,0.4,1.4,0.4l6.8-0.9l2.6,6.3c0.2,0.5,0.6,0.8,1,1l6.3,2.6l-0.9,6.8
	c-0.1,0.5,0.1,1,0.4,1.4l4.2,5.4L73,43.9z M73,43.9 M50.1,57.2c-10,0-18.1-8.1-18.1-18.1s8.1-18.1,18.1-18.1s18.1,8.1,18.1,18.1
	S60,57.2,50.1,57.2z M50.1,24.6c-8,0-14.5,6.5-14.5,14.5c0,8,6.5,14.5,14.5,14.5s14.5-6.5,14.5-14.5C64.6,31.1,58.1,24.6,50.1,24.6z
	"/>
</svg>
