<?xml version="1.0" encoding="utf-8"?>
<!-- Generator: Adobe Illustrator 16.0.0, SVG Export Plug-In . SVG Version: 6.00 Build 0)  -->
<!DOCTYPE svg PUBLIC "-//W3C//DTD SVG 1.1//EN" "http://www.w3.org/Graphics/SVG/1.1/DTD/svg11.dtd">
<svg version="1.1" id="Layer_1" xmlns="http://www.w3.org/2000/svg" xmlns:xlink="http://www.w3.org/1999/xlink" x="0px" y="0px"
	 width="126.75px" height="22.5px" viewBox="11.625 1.25 126.75 22.5" enable-background="new 11.625 1.25 126.75 22.5"
	 xml:space="preserve">
<g>
	<path fill="#99A4AE" d="M12.75,22.522h2.05v-9.155h11.814v-1.816H14.8V4.29h12.121V2.477H12.75V22.522z M34.327,12.609
		c0,5.632,5.009,10.266,10.823,10.266c5.728,0,10.851-4.47,10.851-10.375c0-5.906-5.095-10.375-10.851-10.375
		C39.694,2.125,34.327,6.296,34.327,12.609 M36.374,12.609c0-4.986,4.154-8.668,8.776-8.668c4.845,0,8.804,3.901,8.804,8.585
		c0,4.768-4.071,8.534-8.804,8.534C40.39,21.06,36.374,17.185,36.374,12.609 M66.19,22.522h2.045V4.29h6.842
		c1.718,0,2.768,0.135,3.985,0.76c1.331,0.651,2.242,2.275,2.242,3.847c0,1.79-1.135,3.628-3.377,4.251
		c-0.915,0.272-2.344,0.298-4.948,0.298l7.492,9.076h2.577l-5.787-7.478c3.961-0.244,6.092-3.194,6.092-6.096
		c0-2.461-1.36-4.66-3.655-5.714C78.76,2.801,77.4,2.477,74.662,2.477H66.19V22.522z M92.874,22.522H107.9v-1.813H94.928v-7.396
		h12.668v-1.818H94.928V4.29h12.974V2.477H92.874V22.522z M115.576,12.609c0,5.632,5.008,10.266,10.822,10.266
		c5.733,0,10.852-4.47,10.852-10.375c0-5.906-5.094-10.375-10.852-10.375C120.948,2.125,115.576,6.296,115.576,12.609
		 M117.623,12.609c0-4.986,4.152-8.668,8.775-8.668c4.846,0,8.804,3.901,8.804,8.585c0,4.768-4.07,8.534-8.804,8.534
		C121.638,21.06,117.623,17.185,117.623,12.609"/>
</g>
</svg>
