<?xml version="1.0" encoding="utf-8"?>
<!-- Generator: Adobe Illustrator 21.1.0, SVG Export Plug-In . SVG Version: 6.00 Build 0)  -->
<svg version="1.1" id="Layer_1" xmlns="http://www.w3.org/2000/svg" xmlns:xlink="http://www.w3.org/1999/xlink" x="0px" y="0px"
	 viewBox="0 0 100 100" style="enable-background:new 0 0 100 100;" xml:space="preserve">
<path d="M80.4,65.3c-2.3,0-4.6,0.9-6.2,2.6c-1.7,1.7-2.6,3.9-2.6,6.3c0,2.4,0.9,4.6,2.6,6.3c1.7,1.7,3.9,2.6,6.2,2.6
	c4.8,0,8.7-4,8.7-8.9C89,69.2,85.1,65.3,80.4,65.3z M80.4,79.1c-2.7,0-4.9-2.2-4.9-4.9c0-2.7,2.3-4.9,4.9-4.9c2.6,0,4.8,2.2,4.8,4.9
	C85.1,76.8,83,79.1,80.4,79.1z M82.6,35.7c-0.3-0.3-0.8-0.5-1.3-0.5h-10c-1.1,0-1.9,0.9-1.9,2v16.2c0,1.1,0.9,2,1.9,2h15.8
	c1.1,0,1.9-0.9,1.9-2V42.5c0-0.6-0.2-1.1-0.6-1.5L82.6,35.7z M85.2,51.4h-12V39.1h7.3l4.7,4.3V51.4z M32.8,65.3
	c-2.3,0-4.6,0.9-6.2,2.6c-1.7,1.7-2.6,3.9-2.6,6.3c0,2.4,0.9,4.6,2.6,6.3c1.7,1.7,3.9,2.6,6.2,2.6c4.8,0,8.7-4,8.7-8.9
	C41.5,69.2,37.6,65.3,32.8,65.3z M32.8,79.1c-2.7,0-4.9-2.2-4.9-4.9c0-2.7,2.3-4.9,4.9-4.9c2.6,0,4.8,2.2,4.8,4.9
	C37.6,76.8,35.5,79.1,32.8,79.1z M19.8,67.7h-3.9v-5.2c0-1.1-0.9-2-1.9-2s-1.9,0.9-1.9,2v7.2c0,1.1,0.9,2,1.9,2h5.9
	c1.1,0,1.9-0.9,1.9-2C21.8,68.6,20.9,67.7,19.8,67.7z M29.7,56.9c0-1.1-0.9-2-1.9-2H4.2c-1.1,0-1.9,0.9-1.9,2c0,1.1,0.9,2,1.9,2
	h23.6C28.8,58.9,29.7,58,29.7,56.9z M8.1,49.8L31.7,50c1.1,0,1.9-0.9,2-2c0-1.1-0.9-2-1.9-2L8.1,45.9c0,0,0,0,0,0
	c-1.1,0-1.9,0.9-1.9,2C6.2,48.9,7,49.8,8.1,49.8z M12.1,40.9h23.6c1.1,0,1.9-0.9,1.9-2c0-1.1-0.9-2-1.9-2H12.1c-1.1,0-1.9,0.9-1.9,2
	C10.1,40,11,40.9,12.1,40.9z M97.1,38.2L83.1,26.5c-0.4-0.3-0.8-0.5-1.2-0.5H65.5V19c0-1.1-0.9-2-1.9-2H14c-1.1,0-1.9,0.9-1.9,2
	v14.4c0,1.1,0.9,2,1.9,2s1.9-0.9,1.9-2V20.9h45.7v46.7h-16c-1.1,0-1.9,0.9-1.9,2c0,1.1,0.9,2,1.9,2h23.8c1.1,0,1.9-0.9,1.9-2
	c0-1.1-0.9-2-1.9-2h-3.9V30h15.7l12.7,10.6l-0.1,27h-2c-1.1,0-1.9,0.9-1.9,2c0,1.1,0.9,2,1.9,2h4c1.1,0,1.9-0.9,1.9-2l0.2-29.9
	C97.8,39.2,97.5,38.6,97.1,38.2z"/>
</svg>
